<svg width="19" height="19" viewBox="0 0 19 19" fill="none" xmlns="http://www.w3.org/2000/svg">
<path d="M2.57406 0.867915C2.3472 0.648814 2.04337 0.527578 1.728 0.530319C1.41263 0.533059 1.11095 0.659558 0.88794 0.882568C0.66493 1.10558 0.538432 1.40726 0.535691 1.72263C0.532951 2.038 0.654187 2.34183 0.873288 2.56868L7.8195 9.51489L0.872085 16.4611C0.757205 16.5721 0.665572 16.7048 0.602534 16.8515C0.539496 16.9983 0.506316 17.1561 0.504928 17.3158C0.50354 17.4755 0.533973 17.6339 0.594451 17.7817C0.65493 17.9295 0.744242 18.0638 0.857176 18.1768C0.970111 18.2897 1.10441 18.379 1.25223 18.4395C1.40005 18.5 1.55843 18.5304 1.71814 18.529C1.87785 18.5276 2.03568 18.4945 2.18243 18.4314C2.32918 18.3684 2.4619 18.2767 2.57285 18.1619L9.52026 11.2157L16.4665 18.1619C16.6933 18.381 16.9972 18.5022 17.3125 18.4995C17.6279 18.4967 17.9296 18.3702 18.1526 18.1472C18.3756 17.9242 18.5021 17.6225 18.5048 17.3072C18.5076 16.9918 18.3863 16.688 18.1672 16.4611L11.221 9.51489L18.1672 2.56868C18.3863 2.34183 18.5076 2.038 18.5048 1.72263C18.5021 1.40726 18.3756 1.10558 18.1526 0.882568C17.9296 0.659558 17.6279 0.533059 17.3125 0.530319C16.9972 0.527578 16.6933 0.648814 16.4665 0.867915L9.52026 7.81412L2.57406 0.867915Z" fill="white"/>
</svg>
